<mxfile host="app.diagrams.net" modified="2024-03-30T12:58:28.461Z" agent="Mozilla/5.0 (Windows NT 10.0; Win64; x64) AppleWebKit/537.36 (KHTML, like Gecko) Chrome/111.0.0.0 Safari/537.36" version="24.2.0" etag="alZKynq8dtiLTOzwGZmT" type="github">
  <diagram name="第 1 页" id="jd2F4tV6nOP-5dcdsg5p">
    <mxGraphModel>
      <root>
        <mxCell id="0" />
        <mxCell id="1" parent="0" />
      </root>
    </mxGraphModel>
  </diagram>
</mxfile>
